<?xml version="1.0" standalone="no"?>
<!DOCTYPE svg PUBLIC "-//W3C//DTD SVG 20010904//EN"
 "http://www.w3.org/TR/2001/REC-SVG-20010904/DTD/svg10.dtd">
<svg version="1.0" xmlns="http://www.w3.org/2000/svg"
 width="256.000000pt" height="256.000000pt" viewBox="0 0 256.000000 256.000000"
 preserveAspectRatio="xMidYMid meet">
<metadata>
Created by potrace 1.14, written by Peter Selinger 2001-2017
</metadata>
<g transform="translate(0.000000,256.000000) scale(0.100000,-0.100000)"
fill="#000000" stroke="none">
<path d="M475 2184 c-182 -44 -337 -202 -380 -386 -54 -232 62 -479 272 -579
l72 -34 0 -52 c1 -47 -1 -53 -20 -53 -20 0 -20 -4 -17 -205 l3 -205 32 -31
c27 -28 41 -33 98 -38 l67 -6 15 -45 c8 -25 26 -60 40 -78 l24 -32 -300 0
-301 0 0 -40 0 -40 979 0 c877 0 984 2 1029 16 85 28 158 103 180 185 8 34 9
34 76 40 58 5 72 10 99 38 l32 31 3 253 3 252 -259 259 c-143 142 -270 265
-283 272 -19 10 -105 13 -381 14 -351 0 -358 0 -358 -20 0 -17 -7 -20 -40 -20
-35 0 -40 3 -41 23 -12 321 -328 557 -644 481z m1262 -1634 c8 -25 26 -60 40
-77 l24 -33 -360 0 -360 0 29 44 c17 24 30 49 30 54 0 6 4 22 10 37 l10 25
281 -2 281 -3 15 -45z"/>
<path d="M200 1080 l0 -40 40 0 40 0 0 40 0 40 -40 0 -40 0 0 -40z"/>
<path d="M160 920 l0 -40 60 0 60 0 0 40 0 40 -60 0 -60 0 0 -40z"/>
<path d="M80 760 l0 -40 100 0 100 0 0 40 0 40 -100 0 -100 0 0 -40z"/>
</g>
</svg>
